# xmcd
#
# Track frame offsets: 
#        150
#        10144
#        20499
#        31033
#        45839
#        58466
#        77425
#        88490
#        104093
#        112003
#        124233
#        136459
#        148591
#        151291
#        166838
#
# Disc length: 2384 seconds
#
# Revision: 0
# Processed by: cddbd v1.5.2PL0 Copyright (c) Steve Scherf et al.
# Submitted via: ExactAudioCopy v1.0b6
#
DISCID=c6094e0f
DTITLE=All Around This World - All Around This World: Africa (North an
DTITLE=d East) (2015)
DYEAR=2015
DGENRE=World: Africa
TTITLE0=We Are Happy (East Africa) [Uganda]
TTITLE1=A Hiyeni [Mozambique]
TTITLE2=Arsomo Baba [Morocco]
TTITLE3=Yo Yo Kilili [Egypt]
TTITLE4=Atas Atas [Algeria]
TTITLE5=Ya Rayah [Algeria]
TTITLE6=Nanu Nanu Ney [Ethiopia]
TTITLE7=Kavuli Tutu [Kenya]
TTITLE8=Keenene [Uganda]
TTITLE9=Kipenzi Changu [Kenya]
TTITLE10=Nsa We [Uganda]
TTITLE11=Tulo Tulo [Uganda]
TTITLE12=Cibula [Tanzania]
TTITLE13=Tsy Akeo [Madagascar]
TTITLE14=Goodbye (East Africa) [Uganda]
EXTD=
EXTT0=
EXTT1=
EXTT2=
EXTT3=
EXTT4=
EXTT5=
EXTT6=
EXTT7=
EXTT8=
EXTT9=
EXTT10=
EXTT11=
EXTT12=
EXTT13=
EXTT14=
PLAYORDER=
